# xmcd
#
# Track frame offsets:
#	150
#	14544
#	30456
#	49713
#	69667
#	91026
#	111756
#	128488
#	150802
#	171617
#	190620
#	209501
#	223068
#	238694
#	253890
#
# Disc length: 3744 seconds
#
# Revision: 2
# Processed by: cddbd v1.5.1PL0 Copyright (c) Steve Scherf et al.
# Submitted via: audiograbber 1.82.01
#
DISCID=ca0e9e0f
DTITLE=João Luiz Corrêa - Campeirismo III
DYEAR=2003
DGENRE=Gaúcho
TTITLE0=Velha Morada
TTITLE1=Cruzando Serra e Fronteira
TTITLE2=No Rancho da Candoca
TTITLE3=Era Minha Vida
TTITLE4=Não Deu Pra Te Esquecer
TTITLE5=Touro Pintado
TTITLE6=Me Vou Pra Vanera
TTITLE7=Ladainha
TTITLE8=Dançador e Bochincheiro
TTITLE9=Por Você Me Amar
TTITLE10=Farrancho Missioneiro
TTITLE11=A Solidão e a Saudade
TTITLE12=Gineteando
TTITLE13=Em Volta do Fogão
TTITLE14=Juntando Mosca
EXTD=
EXTT0=
EXTT1=
EXTT2=
EXTT3=
EXTT4=
EXTT5=
EXTT6=
EXTT7=
EXTT8=
EXTT9=
EXTT10=
EXTT11=
EXTT12=
EXTT13=
EXTT14=
PLAYORDER=
